<svg width="25" height="25" viewBox="0 0 25 25" fill="none" xmlns="http://www.w3.org/2000/svg">
<path d="M12.1053 6.51007L12.1053 6.51005C12.3302 6.28502 12.4566 5.97985 12.4566 5.66165C12.4566 5.34345 12.3302 5.03829 12.1053 4.81325L12.1052 4.81321C11.8802 4.58824 11.575 4.46187 11.2568 4.46187C10.9386 4.46187 10.6335 4.58824 10.4084 4.81321L10.4084 4.81323L3.40841 11.8132L3.40839 11.8133C3.18343 12.0383 3.05705 12.3435 3.05705 12.6617C3.05705 12.9798 3.18343 13.285 3.40839 13.5101L3.40841 13.5101L10.4084 20.5101L10.4084 20.5101L10.4109 20.5125C10.6372 20.7311 10.9403 20.8521 11.255 20.8493C11.5696 20.8466 11.8706 20.7204 12.0931 20.4979C12.3156 20.2754 12.4418 19.9744 12.4445 19.6598C12.4472 19.3452 12.3263 19.042 12.1077 18.8157L12.1077 18.8157L12.1053 18.8132L7.15368 13.8617H20.2568C20.5751 13.8617 20.8803 13.7352 21.1054 13.5102C21.3304 13.2851 21.4568 12.9799 21.4568 12.6617C21.4568 12.3434 21.3304 12.0382 21.1054 11.8131C20.8803 11.5881 20.5751 11.4617 20.2568 11.4617H7.15368L12.1053 6.51007Z" fill="white" stroke="white" stroke-width="0.4"/>
</svg>
