<svg width="27" height="27" viewBox="0 0 27 27" fill="none" xmlns="http://www.w3.org/2000/svg">
<path fill-rule="evenodd" clip-rule="evenodd" d="M13.2568 4.99265C12.4389 4.99272 11.6422 5.25312 10.9822 5.73614C10.3221 6.21916 9.83291 6.89974 9.58542 7.67932L8.71875 10.4093H17.7949L16.9283 7.67932C16.6808 6.89974 16.1916 6.21916 15.5315 5.73614C14.8714 5.25312 14.0748 4.99272 13.2568 4.99265ZM20.0678 10.4093L18.9931 7.0239C18.6067 5.80566 17.8424 4.74209 16.8111 3.98726C15.7798 3.23242 14.5349 2.82553 13.2568 2.82553C11.9788 2.82553 10.7339 3.23242 9.70258 3.98726C8.67125 4.74209 7.90701 5.80566 7.52058 7.0239L6.44592 10.4093H3.88383C3.54556 10.4093 3.212 10.4885 2.90984 10.6406C2.60768 10.7927 2.34533 11.0134 2.14378 11.2851C1.94224 11.5567 1.80711 11.8718 1.7492 12.2051C1.6913 12.5384 1.71224 12.8806 1.81033 13.2043L3.028 17.2235L4.53167 22.1852C4.73391 22.8526 5.14548 23.4372 5.70556 23.8528C6.26564 24.2683 6.94453 24.4926 7.64192 24.4926H18.8718C19.569 24.4924 20.2476 24.2679 20.8075 23.8524C21.3673 23.4369 21.7787 22.8524 21.9809 22.1852L23.4857 17.2235L24.7033 13.2043C24.8014 12.8806 24.8224 12.5384 24.7645 12.2051C24.7066 11.8718 24.5714 11.5567 24.3699 11.2851C24.1683 11.0134 23.906 10.7927 23.6038 10.6406C23.3017 10.4885 22.9681 10.4093 22.6298 10.4093H20.0678ZM7.23783 12.576H3.88383L4.86858 15.826H8.96358L8.51942 12.576H7.23783ZM10.7067 12.576L11.1498 15.826H15.3639L15.8081 12.576H10.7056H10.7067ZM17.9942 12.576L17.5501 15.826H21.6451L22.6298 12.576H17.9942ZM20.9886 17.9927H17.2543L16.6639 22.326H18.8707C19.1031 22.326 19.3294 22.2512 19.5161 22.1127C19.7028 21.9742 19.84 21.7793 19.9074 21.5568L20.9875 17.9927H20.9886ZM14.4778 22.326L15.0682 17.9927H11.4444L12.0359 22.326H14.4778ZM9.84867 22.326L9.25825 17.9927H5.52508L6.60517 21.5568C6.67258 21.7793 6.80977 21.9742 6.99646 22.1127C7.18316 22.2512 7.40945 22.326 7.64192 22.326H9.84867Z" fill="white"/>
</svg>
