<svg width="20" height="22" viewBox="0 0 20 22" fill="none" xmlns="http://www.w3.org/2000/svg">
<path d="M6.29984 3.83515L6.20852 3.71615C5.20202 4.48852 4.62292 5.52351 4.28156 6.54549L4.28151 6.54566C3.94454 7.55856 3.82348 8.61035 3.76418 9.48775L3.76415 9.48817C3.74104 9.8449 3.72598 10.1882 3.71397 10.4885C3.71397 10.4886 3.71396 10.4887 3.71396 10.4888L3.70498 10.6901L3.70497 10.6906C3.68995 11.052 3.67413 11.3145 3.6482 11.5056L3.64816 11.5059C3.45192 12.9721 3.21115 13.9821 2.87459 14.7814C2.5463 15.5587 2.10636 16.1829 1.44377 16.8454L1.44376 16.8455C1.28298 17.0063 1.17349 17.2112 1.12913 17.4342C1.08478 17.6572 1.10755 17.8884 1.19458 18.0985C1.2816 18.3086 1.42896 18.4882 1.61803 18.6145C1.8071 18.7409 2.02939 18.8084 2.2568 18.8084H2.25684H8.28116C8.16607 19.0761 8.10624 19.3652 8.10634 19.6583C8.10646 20.0356 8.20589 20.4063 8.39462 20.733C8.58336 21.0597 8.85476 21.331 9.18155 21.5196C9.50834 21.7082 9.87902 21.8075 10.2563 21.8075C10.6337 21.8075 11.0043 21.7082 11.3311 21.5196C11.6579 21.331 11.9293 21.0597 12.118 20.733C12.3068 20.4063 12.4062 20.0356 12.4063 19.6583C12.4064 19.3652 12.3466 19.0761 12.2315 18.8084H18.2568H18.2569C18.4843 18.8084 18.7066 18.7409 18.8956 18.6145C19.0847 18.4882 19.2321 18.3086 19.3191 18.0985C19.4061 17.8884 19.4289 17.6572 19.3845 17.4342C19.3402 17.2112 19.2307 17.0063 19.0699 16.8455L19.0699 16.8454C18.4086 16.1841 17.9685 15.555 17.639 14.7743C17.3005 13.972 17.0597 12.9621 16.8655 11.5059L16.8655 11.5055C16.8395 11.3154 16.8237 11.0521 16.8087 10.6916L16.8087 10.6912L16.7997 10.4888C16.7997 10.4888 16.7997 10.4887 16.7997 10.4886C16.7877 10.1873 16.7726 9.84476 16.7485 9.48775C16.7485 9.48781 16.7485 9.48787 16.7485 9.48793L6.29984 3.83515ZM6.29984 3.83515L6.20923 3.71561C6.77741 3.28495 7.42258 2.96747 8.10962 2.77995C8.09532 2.52147 8.12781 2.26215 8.20589 2.01457C8.29715 1.72525 8.4486 1.45851 8.65031 1.23189C8.85201 1.00527 9.09939 0.823905 9.37619 0.699714C9.653 0.575522 9.95295 0.511316 10.2563 0.511316C10.5597 0.511316 10.8597 0.575522 11.1365 0.699714C11.4133 0.823905 11.6607 1.00527 11.8624 1.23189C12.0641 1.45851 12.2155 1.72525 12.3068 2.01457C12.3849 2.26214 12.4174 2.52144 12.4031 2.77992C13.0904 2.96732 13.736 3.28481 14.3044 3.7156L14.3052 3.7162C15.3116 4.48953 15.8908 5.52346 16.2312 6.54562L6.29984 3.83515ZM15.9294 16.5085H4.58662C4.73448 16.2444 4.8693 15.9683 4.99298 15.676L4.993 15.676C5.44551 14.6052 5.72075 13.3643 5.92851 11.8117L5.92854 11.8117L5.92885 11.8089C5.96786 11.4707 5.99251 11.1309 6.00273 10.7905L6.01268 10.5758L6.01272 10.5748C6.02471 10.2749 6.03765 9.96668 6.0595 9.64193L6.05951 9.64179C6.1132 8.83239 6.21815 8.00938 6.46412 7.27247C6.70776 6.54458 7.06966 5.95461 7.60923 5.54001C8.14192 5.13109 8.95483 4.80911 10.2568 4.80911C11.5588 4.80911 12.3718 5.13109 12.9044 5.54001L15.9294 16.5085ZM15.9294 16.5085C15.7801 16.2416 15.6437 15.9626 15.5196 15.6679C15.0672 14.5953 14.7919 13.3554 14.5852 11.8117L14.5851 11.8115C14.5441 11.503 14.526 11.1397 14.511 10.7905C14.511 10.7904 14.511 10.7903 14.511 10.7902L14.501 10.5748L14.501 10.5738C14.489 10.2749 14.476 9.96669 14.4542 9.64193L14.4542 9.64179C14.4005 8.83239 14.2955 8.00938 14.0496 7.27247L14.0495 7.27242C13.807 6.54476 13.4441 5.95472 12.9045 5.54005L15.9294 16.5085Z" fill="white" stroke="white" stroke-width="0.3"/>
</svg>
