<svg width="53" height="53" viewBox="0 0 53 53" fill="none" xmlns="http://www.w3.org/2000/svg">
<circle cx="26.2568" cy="26.6593" r="26" fill="url(#paint0_linear_1_79)"/>
<path fill-rule="evenodd" clip-rule="evenodd" d="M26.2568 17.9926C25.4389 17.9927 24.6422 18.2531 23.9822 18.7361C23.3221 19.2192 22.8329 19.8997 22.5854 20.6793L21.7188 23.4093H30.7949L29.9283 20.6793C29.6808 19.8997 29.1916 19.2192 28.5315 18.7361C27.8714 18.2531 27.0748 17.9927 26.2568 17.9926ZM33.0678 23.4093L31.9931 20.0239C31.6067 18.8057 30.8424 17.7421 29.8111 16.9873C28.7798 16.2324 27.5349 15.8255 26.2568 15.8255C24.9788 15.8255 23.7339 16.2324 22.7026 16.9873C21.6712 17.7421 20.907 18.8057 20.5206 20.0239L19.4459 23.4093H16.8838C16.5456 23.4093 16.212 23.4885 15.9098 23.6406C15.6077 23.7927 15.3453 24.0134 15.1438 24.2851C14.9422 24.5567 14.8071 24.8718 14.7492 25.2051C14.6913 25.5384 14.7122 25.8806 14.8103 26.2043L16.028 30.2235L17.5317 35.1852C17.7339 35.8526 18.1455 36.4372 18.7056 36.8528C19.2656 37.2683 19.9445 37.4926 20.6419 37.4926H31.8718C32.569 37.4924 33.2476 37.2679 33.8075 36.8524C34.3673 36.4369 34.7787 35.8524 34.9809 35.1852L36.4857 30.2235L37.7033 26.2043C37.8014 25.8806 37.8224 25.5384 37.7645 25.2051C37.7066 24.8718 37.5714 24.5567 37.3699 24.2851C37.1683 24.0134 36.906 23.7927 36.6038 23.6406C36.3017 23.4885 35.9681 23.4093 35.6298 23.4093H33.0678ZM20.2378 25.576H16.8838L17.8686 28.826H21.9636L21.5194 25.576H20.2378ZM23.7067 25.576L24.1498 28.826H28.3639L28.8081 25.576H23.7056H23.7067ZM30.9942 25.576L30.5501 28.826H34.6451L35.6298 25.576H30.9942ZM33.9886 30.9927H30.2543L29.6639 35.326H31.8707C32.1031 35.326 32.3294 35.2512 32.5161 35.1127C32.7028 34.9742 32.84 34.7793 32.9074 34.5568L33.9875 30.9927H33.9886ZM27.4778 35.326L28.0682 30.9927H24.4444L25.0359 35.326H27.4778ZM22.8487 35.326L22.2583 30.9927H18.5251L19.6052 34.5568C19.6726 34.7793 19.8098 34.9742 19.9965 35.1127C20.1832 35.2512 20.4095 35.326 20.6419 35.326H22.8487Z" fill="white"/>
<defs>
<linearGradient id="paint0_linear_1_79" x1="26.2568" y1="0.659302" x2="26.2568" y2="52.6593" gradientUnits="userSpaceOnUse">
<stop stop-color="#E1D24A"/>
<stop offset="1" stop-color="#C69223"/>
</linearGradient>
</defs>
</svg>
