<svg width="25" height="25" viewBox="0 0 25 25" fill="none" xmlns="http://www.w3.org/2000/svg">
<circle opacity="0.3" cx="12.2568" cy="12.6593" r="12" fill="black"/>
<path d="M13.2402 8.49379C13.2402 8.233 13.1366 7.98288 12.9522 7.79847C12.7677 7.61406 12.5176 7.51046 12.2568 7.51046C11.996 7.51046 11.7459 7.61406 11.5615 7.79847C11.3771 7.98288 11.2735 8.233 11.2735 8.49379V11.6771H8.09017C7.82937 11.6771 7.57926 11.7807 7.39485 11.9651C7.21044 12.1496 7.10684 12.3997 7.10684 12.6605C7.10684 12.9213 7.21044 13.1714 7.39485 13.3558C7.57926 13.5402 7.82937 13.6438 8.09017 13.6438H11.2735V16.8271C11.2735 17.0879 11.3771 17.338 11.5615 17.5224C11.7459 17.7069 11.996 17.8105 12.2568 17.8105C12.5176 17.8105 12.7677 17.7069 12.9522 17.5224C13.1366 17.338 13.2402 17.0879 13.2402 16.8271V13.6438H16.4235C16.6843 13.6438 16.9344 13.5402 17.1188 13.3558C17.3032 13.1714 17.4068 12.9213 17.4068 12.6605C17.4068 12.3997 17.3032 12.1496 17.1188 11.9651C16.9344 11.7807 16.6843 11.6771 16.4235 11.6771H13.2402V8.49379Z" fill="white" stroke="white" stroke-width="0.3"/>
</svg>
