<svg width="25" height="25" viewBox="0 0 25 25" fill="none" xmlns="http://www.w3.org/2000/svg">
<path d="M20.3625 10.8581C20.3625 17.1624 12.2568 22.5662 12.2568 22.5662C12.2568 22.5662 4.15121 17.1624 4.15121 10.8581C4.15121 8.70832 5.0052 6.64662 6.5253 5.12652C8.04539 3.60642 10.1071 2.75244 12.2568 2.75244C14.4066 2.75244 16.4683 3.60642 17.9884 5.12652C19.5085 6.64662 20.3625 8.70832 20.3625 10.8581Z" stroke="white" stroke-width="2.4" stroke-linecap="round" stroke-linejoin="round"/>
<path d="M12.2568 13.5599C13.749 13.5599 14.9587 12.3502 14.9587 10.858C14.9587 9.36583 13.749 8.15616 12.2568 8.15616C10.7646 8.15616 9.55496 9.36583 9.55496 10.858C9.55496 12.3502 10.7646 13.5599 12.2568 13.5599Z" stroke="white" stroke-width="2.4" stroke-linecap="round" stroke-linejoin="round"/>
</svg>
