<svg width="25" height="25" viewBox="0 0 25 25" fill="none" xmlns="http://www.w3.org/2000/svg">
<path d="M7.0584 13.4055C7.1564 13.1689 7.20684 12.9154 7.20684 12.6593C7.20684 12.1421 7.00139 11.6461 6.63569 11.2804C6.27 10.9147 5.77401 10.7093 5.25684 10.7093C4.73966 10.7093 4.24367 10.9147 3.87798 11.2804C3.51228 11.6461 3.30684 12.1421 3.30684 12.6593C3.30684 12.9154 3.35727 13.1689 3.45527 13.4055C3.55327 13.6421 3.6969 13.8571 3.87798 14.0382C4.05905 14.2192 4.27402 14.3629 4.5106 14.4609C4.74719 14.5589 5.00076 14.6093 5.25684 14.6093C5.51291 14.6093 5.76648 14.5589 6.00307 14.4609C6.23965 14.3629 6.45462 14.2192 6.63569 14.0382C6.81677 13.8571 6.9604 13.6421 7.0584 13.4055ZM20.6357 14.0382C21.0014 13.6725 21.2068 13.1765 21.2068 12.6593C21.2068 12.1421 21.0014 11.6461 20.6357 11.2804C20.27 10.9147 19.774 10.7093 19.2568 10.7093C18.7397 10.7093 18.2437 10.9147 17.878 11.2804C17.5123 11.6461 17.3068 12.1421 17.3068 12.6593C17.3068 13.1765 17.5123 13.6725 17.878 14.0382C18.2437 14.4039 18.7397 14.6093 19.2568 14.6093C19.774 14.6093 20.27 14.4039 20.6357 14.0382ZM12.2568 14.6093C12.774 14.6093 13.27 14.4039 13.6357 14.0382C14.0014 13.6725 14.2068 13.1765 14.2068 12.6593C14.2068 12.1421 14.0014 11.6461 13.6357 11.2804C13.27 10.9147 12.774 10.7093 12.2568 10.7093C11.7397 10.7093 11.2437 10.9147 10.878 11.2804C10.5123 11.6461 10.3068 12.1421 10.3068 12.6593C10.3068 13.1765 10.5123 13.6725 10.878 14.0382C11.2437 14.4039 11.7397 14.6093 12.2568 14.6093Z" fill="white" stroke="white" stroke-width="0.4"/>
</svg>
