<svg width="25" height="25" viewBox="0 0 25 25" fill="none" xmlns="http://www.w3.org/2000/svg">
<path d="M13.1038 6.49443C17.2327 6.41443 20.7372 9.52028 21.2827 13.5588H21.7378H21.7379C21.8179 13.5588 21.8961 13.5348 21.9624 13.4899C22.0287 13.445 22.0799 13.3812 22.1096 13.3069C22.1392 13.2325 22.1458 13.151 22.1286 13.0728C22.1114 12.9947 22.0712 12.9234 22.0131 12.8684L22.013 12.8684L21.898 12.7594L21.8969 12.7583C21.6906 12.5564 21.5719 12.2816 21.5664 11.993C21.5609 11.7045 21.6691 11.4253 21.8675 11.2158C22.066 11.0062 22.3388 10.883 22.6273 10.8728C22.9157 10.8626 23.1966 10.9662 23.4094 11.1611L23.4106 11.1623L23.5256 11.2712L13.1038 6.49443ZM13.1038 6.49443C12.7429 5.5569 12.0567 4.65576 11.2113 3.95678C10.3461 3.24146 9.30719 2.73206 8.26794 2.61591L8.2678 2.61589C7.97177 2.58323 7.67378 2.58129 7.38215 2.58129L7.38246 2.58129L7.38184 2.68129V2.58129L13.1038 6.49443ZM3.9215 17.8811L3.92145 17.881C3.08646 17.2647 2.01906 16.846 1.14021 16.7521C0.870268 16.7233 0.620506 16.5957 0.438968 16.3939C0.257424 16.192 0.156935 15.9302 0.156836 15.6587L0.156836 15.6587L0.156836 11.6589V11.6588C0.156945 11.4546 0.213908 11.2544 0.321345 11.0807C0.428773 10.9071 0.582425 10.7668 0.765094 10.6755C0.765109 10.6755 0.765123 10.6755 0.765138 10.6754L2.3465 9.88431C3.01649 8.06895 4.64771 7.03135 6.15684 6.68865L3.9215 17.8811ZM3.9215 17.8811C4.79025 18.5215 5.15684 19.1774 5.15684 19.6585V22.6583C5.15684 22.9501 5.27273 23.2298 5.47902 23.4361C5.68531 23.6424 5.9651 23.7583 6.25684 23.7583H9.25681C9.48777 23.7583 9.71289 23.6857 9.90026 23.5507C10.0876 23.4156 10.2277 23.225 10.3007 23.0059L10.6677 21.904C10.7788 21.5704 10.9921 21.2803 11.2773 21.0747C11.5626 20.8691 11.9052 20.7585 12.2568 20.7585C12.6084 20.7585 12.9511 20.8691 13.2363 21.0747C13.5215 21.2803 13.7348 21.5704 13.846 21.904L14.213 23.0059C14.2859 23.225 14.4261 23.4156 14.6134 23.5507C14.8008 23.6857 15.0259 23.7583 15.2568 23.7583H18.2568C18.5486 23.7583 18.8284 23.6424 19.0347 23.4361C19.2409 23.2298 19.3568 22.9501 19.3568 22.6583V19.1138C20.2904 18.1728 21.001 17.0929 21.2543 15.7587H21.7378C24.0892 15.7587 25.2333 12.8874 23.5256 11.2713L3.9215 17.8811ZM7.35684 21.5584V19.6585C7.35684 18.1392 6.31284 16.9112 5.22721 16.1102L5.22682 16.1099C4.36381 15.4795 3.39023 15.017 2.35684 14.7462V12.3386L3.74855 11.6423C3.89051 11.5713 4.01542 11.4705 4.11473 11.3467C4.21402 11.2229 4.28535 11.0791 4.32383 10.9252C4.66994 9.54471 6.11635 8.759 7.25684 8.759C7.54857 8.759 7.82836 8.64312 8.03465 8.43683C8.24094 8.23055 8.35684 7.95078 8.35684 7.65905V4.87356C8.92799 5.05629 9.57698 5.41489 10.1078 5.88687C10.6788 6.39462 11.1002 7.02186 11.157 7.68908C11.1626 7.83926 11.1987 7.98674 11.2631 8.12257C11.3278 8.25916 11.4197 8.38109 11.5332 8.4809C11.6467 8.5807 11.7794 8.65628 11.9231 8.703C12.0668 8.74971 12.2186 8.76658 12.3691 8.75257L12.3698 8.75251L12.6498 8.72451L12.6501 8.72447C16.117 8.3667 19.1568 11.147 19.1568 14.6587C19.1568 15.6471 18.7644 16.5965 18.0654 17.2946C18.001 17.3583 17.9356 17.4207 17.8691 17.482L17.8687 17.4823L17.8583 17.4921C17.5401 17.7879 17.1568 18.1442 17.1568 18.6585V21.5584H16.049L15.9327 21.2079L15.9327 21.2077C15.6754 20.4364 15.1819 19.7656 14.5222 19.2903C13.8625 18.8149 13.07 18.5591 12.2568 18.5591C11.4437 18.5591 10.6512 18.8149 9.99145 19.2903C9.33176 19.7656 8.83831 20.4364 8.58099 21.2077C8.58099 21.2077 8.58098 21.2077 8.58098 21.2077L8.46382 21.5584H7.35684ZM0.256836 15.6587V11.6589L1.15084 16.6526C0.905426 16.6265 0.678358 16.5105 0.513319 16.327C0.348279 16.1435 0.256926 15.9055 0.256836 15.6587ZM7.75684 13.7588C8.18118 13.7588 8.58815 13.5902 8.88821 13.2902C9.18826 12.9901 9.35684 12.5832 9.35684 12.1588C9.35684 11.7345 9.18826 11.3276 8.88821 11.0275C8.58815 10.7275 8.18118 10.5589 7.75684 10.5589C7.33249 10.5589 6.92553 10.7275 6.62547 11.0275C6.32541 11.3276 6.15684 11.7345 6.15684 12.1588C6.15684 12.5832 6.32541 12.9901 6.62547 13.2902C6.92553 13.5902 7.33249 13.7588 7.75684 13.7588Z" fill="white" stroke="white" stroke-width="0.2"/>
</svg>
