<svg width="33" height="33" viewBox="0 0 33 33" fill="none" xmlns="http://www.w3.org/2000/svg">
<rect x="0.256836" y="0.659302" width="32" height="32" rx="16" fill="#19191D"/>
<path d="M17.1054 8.81077C16.8803 8.58573 16.5751 8.4593 16.2568 8.4593C15.9386 8.4593 15.6334 8.58573 15.4083 8.81077C15.1833 9.03582 15.0568 9.34104 15.0568 9.6593V15.4593H9.25684C8.93858 15.4593 8.63335 15.5857 8.40831 15.8108C8.18326 16.0358 8.05684 16.341 8.05684 16.6593C8.05684 16.9776 8.18326 17.2828 8.40831 17.5078C8.63335 17.7329 8.93858 17.8593 9.25684 17.8593H15.0568V23.6593C15.0568 23.9776 15.1833 24.2828 15.4083 24.5078C15.6334 24.7329 15.9386 24.8593 16.2568 24.8593C16.5751 24.8593 16.8803 24.7329 17.1054 24.5078C17.3304 24.2828 17.4568 23.9776 17.4568 23.6593V17.8593H23.2568C23.5751 17.8593 23.8803 17.7329 24.1054 17.5078C24.3304 17.2828 24.4568 16.9776 24.4568 16.6593C24.4568 16.341 24.3304 16.0358 24.1054 15.8108C23.8803 15.5857 23.5751 15.4593 23.2568 15.4593H17.4568V9.6593C17.4568 9.34104 17.3304 9.03582 17.1054 8.81077Z" fill="white" stroke="white" stroke-width="0.4"/>
</svg>
